<?xml version="1.0" encoding="UTF-8"?>
<svg width="1600" height="900" viewBox="0 0 1600 900" xmlns="http://www.w3.org/2000/svg" role="img" aria-label="Illustration of stochastic diffusion search with agents and text search">
  <defs>
    <linearGradient id="bg" x1="0" x2="1" y1="0" y2="1">
      <stop offset="0%" stop-color="#f7f8fb"/>
      <stop offset="100%" stop-color="#eef2f7"/>
    </linearGradient>
    <linearGradient id="accent" x1="0" x2="1" y1="0" y2="0">
      <stop offset="0%" stop-color="#14b8a6"/>
      <stop offset="100%" stop-color="#5eead4"/>
    </linearGradient>
  </defs>

  <rect width="1600" height="900" fill="url(#bg)"/>

  <!-- Text blocks -->
  <g transform="translate(180 200)">
    <rect x="0" y="0" width="520" height="500" rx="18" fill="#ffffff" stroke="#dbe4ee" stroke-width="2"/>
    <rect x="30" y="50" width="220" height="14" rx="7" fill="#cbd5e1"/>
    <rect x="30" y="84" width="420" height="12" rx="6" fill="#e2e8f0"/>
    <rect x="30" y="108" width="380" height="12" rx="6" fill="#e2e8f0"/>
    <rect x="30" y="132" width="410" height="12" rx="6" fill="#e2e8f0"/>
    <rect x="30" y="176" width="420" height="12" rx="6" fill="#e2e8f0"/>
    <rect x="30" y="200" width="360" height="12" rx="6" fill="#e2e8f0"/>
    <rect x="30" y="224" width="390" height="12" rx="6" fill="#e2e8f0"/>
    <rect x="30" y="268" width="420" height="12" rx="6" fill="#e2e8f0"/>
    <rect x="30" y="292" width="340" height="12" rx="6" fill="#e2e8f0"/>
    <rect x="30" y="316" width="300" height="12" rx="6" fill="#e2e8f0"/>
  </g>

  <!-- Agent swarm -->
  <g transform="translate(820 170)">
    <circle cx="160" cy="160" r="140" fill="url(#accent)" opacity="0.25"/>
    <circle cx="340" cy="240" r="120" fill="#93c5fd" opacity="0.2"/>
    <circle cx="220" cy="360" r="110" fill="#fcd34d" opacity="0.2"/>

    <g fill="#0f766e">
      <circle cx="120" cy="120" r="8"/>
      <circle cx="160" cy="90" r="7"/>
      <circle cx="200" cy="140" r="8"/>
      <circle cx="100" cy="190" r="7"/>
      <circle cx="180" cy="200" r="8"/>
      <circle cx="240" cy="170" r="7"/>
      <circle cx="300" cy="210" r="8"/>
      <circle cx="320" cy="260" r="7"/>
      <circle cx="260" cy="300" r="8"/>
      <circle cx="200" cy="320" r="7"/>
      <circle cx="160" cy="350" r="8"/>
      <circle cx="120" cy="300" r="7"/>
    </g>
  </g>

  <!-- Magnifier -->
  <g transform="translate(980 560)">
    <circle cx="90" cy="90" r="70" fill="#ffffff" stroke="#94a3b8" stroke-width="6"/>
    <line x1="140" y1="140" x2="210" y2="210" stroke="#94a3b8" stroke-width="10" stroke-linecap="round"/>
    <rect x="40" y="70" width="100" height="12" rx="6" fill="#e2e8f0"/>
    <rect x="40" y="90" width="80" height="12" rx="6" fill="#e2e8f0"/>
  </g>
</svg>
